# xmcd CD database file generated by LOLA_Freedb v0.9beta0
# 
# Track frame offsets:
#      150
#      13237
#      25578
#      36158
#      51104
#      64627
#      77675
#      91940
#      109891
#      128192
#      140915
#      153735
#      166139
#      178065
#      191389
#      205236
# 
# Disc length: 2918 seconds
# 
# Revision: 0 
# Processed by: cddbd v1.5.1PL2 Copyright (c) Steve Scherf et al.
# Submitted via: LOLA_Freedb v0.9beta0
# 
DISCID=d80b6410
DTITLE=Don Williams - Some broken hearts
DYEAR=1981
DGENRE=
TTITLE0=Don Williams - Some broken hearts never mend
TTITLE1=Don Williams - You're my best friend
TTITLE2=Don Williams - (Turn out the light and) love me tonight
TTITLE3=Don Williams - I recall agypsy woman
TTITLE4=Don Williams - We should be together
TTITLE5=Don Williams - Love me over again
TTITLE6=Don Williams - She's in Love with a Roedeo man
TTITLE7=Don Williams - Where the Arkansas River leaves Oklahoma
TTITLE8=Don Williams - I believe in you
TTITLE9=Don Williams - Lay down beside me
TTITLE10=Don Williams - Where are you
TTITLE11=Don Williams - Atta way to go
TTITLE12=Don Williams - Don't you believe
TTITLE13=Don Williams - Say it again
TTITLE14=Don Williams - Down the road I go
TTITLE15=Don Williams - Amanda
EXTD=
EXTT0=
EXTT1=
EXTT2=
EXTT3=
EXTT4=
EXTT5=
EXTT6=
EXTT7=
EXTT8=
EXTT9=
EXTT10=
EXTT11=
EXTT12=
EXTT13=
EXTT14=
EXTT15=
PLAYORDER=
